<?xml version="1.0" encoding="UTF-8"?>
<svg version="1.1" xmlns="http://www.w3.org/2000/svg" width="512" height="512">
<path d="M0 0 C0.69359757 -0.00235223 1.38719514 -0.00470446 2.10181081 -0.00712797 C4.44326707 -0.01382433 6.78466792 -0.01335956 9.12613297 -0.01294994 C10.81490229 -0.01624817 12.50367083 -0.01997364 14.19243836 -0.02409142 C18.84679247 -0.03412416 23.50113368 -0.03783026 28.15549707 -0.04048073 C33.16994559 -0.04437997 38.18438385 -0.05395851 43.19882584 -0.0626936 C55.31487903 -0.08246796 67.43093308 -0.09252509 79.54699838 -0.10142139 C85.24932369 -0.10580237 90.95164806 -0.11116964 96.65397263 -0.11641026 C115.60367388 -0.1334229 134.55337455 -0.14791808 153.50308228 -0.155159 C158.42204921 -0.15706896 163.34101614 -0.15898928 168.25998306 -0.16094494 C169.48260244 -0.16142868 170.70522182 -0.16191242 171.96489027 -0.16241082 C191.77990306 -0.17071488 211.59485554 -0.196058 231.40984198 -0.22852562 C251.7422851 -0.26157019 272.07469755 -0.27960537 292.40716767 -0.28280324 C303.82766473 -0.28497066 315.24807384 -0.29375335 326.66854477 -0.31926441 C336.39270318 -0.3409358 346.11675228 -0.34903937 355.8409321 -0.33929763 C360.80380863 -0.3347427 365.76645947 -0.33670836 370.72930527 -0.35605907 C375.27185255 -0.37361833 379.81400828 -0.37275212 384.35655931 -0.35716178 C386.0005988 -0.35477468 387.64466489 -0.3591661 389.2886636 -0.37099043 C391.52332245 -0.38606854 393.75658655 -0.37646693 395.99121094 -0.36076355 C397.23240936 -0.36174036 398.47360778 -0.36271717 399.75241828 -0.36372358 C405.0166296 0.3863147 409.70963642 2.79820648 413.05978775 7.07172108 C416.89163805 12.4363115 417.53979802 16.7572838 417.50455666 23.25468636 C417.50806273 24.07185492 417.5115688 24.88902349 417.51518112 25.73095474 C417.52451636 28.48078532 417.51956633 31.23040512 417.51471329 33.98024464 C417.51844847 35.96701391 417.52304947 37.95378171 417.52844393 39.94054717 C417.54070558 45.40938087 417.54040974 50.87815354 417.53805518 56.34699786 C417.53764781 62.24146989 417.54867848 68.13592215 417.55817032 74.03038502 C417.57479855 85.58218311 417.58030658 97.13396236 417.58139507 108.68577126 C417.58231388 118.07345924 417.58642907 127.46114059 417.59279633 136.84882641 C417.59459139 139.55027935 417.59637102 142.2517323 417.59814608 144.95318526 C417.59880923 145.96054704 417.59880923 145.96054704 417.59948577 146.98825957 C417.61179563 165.88062876 417.61968675 184.77299565 417.61879921 203.66536903 C417.61875247 204.73397926 417.61875247 204.73397926 417.61870479 205.82417757 C417.61853858 209.43501649 417.61834049 213.04585541 417.61813538 216.65669433 C417.61809549 217.37382997 417.6180556 218.09096561 417.6180145 218.82983264 C417.61793362 220.28005597 417.61785003 221.7302793 417.61776371 223.18050263 C417.61653815 245.74460968 417.63155176 268.30865662 417.65890884 290.87274647 C417.68962614 316.21883101 417.70684155 341.56487607 417.7049824 366.9109804 C417.70483314 369.61337642 417.70473572 372.31577243 417.70467377 375.01816845 C417.70465046 375.6835751 417.70462715 376.34898174 417.70460313 377.03455222 C417.70454539 387.08197988 417.71524652 397.12935828 417.7313385 407.17677212 C417.74952238 418.60374999 417.7539206 430.03062936 417.74031965 441.45761541 C417.73377597 447.28945258 417.73372339 453.12110062 417.75102615 458.95291996 C417.76669984 464.29049173 417.76395158 469.6277235 417.74645789 474.96528669 C417.74337541 476.89730059 417.74706708 478.8293395 417.75817804 480.76132391 C417.77227802 483.38670567 417.76172977 486.01089135 417.74506569 488.63623238 C417.75500205 489.38708153 417.76493841 490.13793069 417.77517587 490.91153285 C417.69008029 497.24876515 415.64127816 502.42103194 411.4308815 507.19281483 C410.85467056 507.64785389 410.27845963 508.10289295 409.68478775 508.57172108 C409.10599869 509.04480701 408.52720963 509.51789295 407.9308815 510.00531483 C404.24142577 512.47921902 400.79710036 512.26132477 396.49178219 512.26564884 C395.45093644 512.26872779 395.45093644 512.26872779 394.38906351 512.27186894 C392.04659589 512.27755685 389.70418674 512.2760795 387.36171341 512.27466297 C385.67223156 512.27724558 383.98275032 512.28025845 382.29326993 512.28366637 C377.63698334 512.29175184 372.98071216 512.2935268 368.32441938 512.29426384 C363.30794635 512.2961117 358.29148136 512.30365765 353.27501297 512.31039906 C342.29993225 512.32399362 331.32485518 512.33000877 320.34976745 512.33440971 C313.50039896 512.33717009 306.65103188 512.34140705 299.80166435 512.34591389 C280.84767082 512.35810774 261.89367842 512.36840701 242.93968105 512.37178898 C241.72607517 512.37200854 240.5124693 512.37222811 239.26208748 512.37245433 C237.43726005 512.37278175 237.43726005 512.37278175 235.57556742 512.37311578 C233.11026521 512.37355925 230.64496301 512.37400581 228.1796608 512.37445545 C226.95677911 512.37467688 225.73389742 512.37489831 224.47395871 512.37512645 C204.65181574 512.37907581 184.8297095 512.3965335 165.00758072 512.41981497 C144.66949212 512.44351018 124.33142197 512.45598998 103.99331933 512.4571569 C92.56895944 512.45807466 81.14464741 512.46385244 69.72030067 512.48197651 C59.99356352 512.49735276 50.26688902 512.5025126 40.54014202 512.49423841 C35.57540237 512.49032319 30.61078899 512.49130392 25.64606476 512.50529575 C21.10300815 512.51798241 16.56017337 512.51688344 12.0171173 512.50470504 C10.37175234 512.50273894 8.72637195 512.50586838 7.08102872 512.5145494 C4.84718733 512.52559118 2.61413581 512.51819023 0.38031673 512.50615788 C-0.86126141 512.50675496 -2.10283955 512.50735205 -3.38204128 512.50796723 C-8.68216291 511.92028006 -12.61936741 509.86756839 -16.00271225 505.75922108 C-16.4822435 505.1946117 -16.96177475 504.63000233 -17.45583725 504.04828358 C-20.72504759 499.22324423 -21.0408654 494.70784211 -21.00998116 489.0137558 C-21.01348723 488.19658723 -21.0169933 487.37941867 -21.02060562 486.53748742 C-21.02994086 483.78765683 -21.02499083 481.03803704 -21.02013779 478.28819752 C-21.02387297 476.30142825 -21.02847397 474.31466044 -21.03386843 472.32789499 C-21.04613008 466.85906129 -21.04583424 461.39028861 -21.04347968 455.9214443 C-21.04307231 450.02697226 -21.05410298 444.13252001 -21.06359482 438.23805714 C-21.08022304 426.68625904 -21.08573108 415.1344798 -21.08681957 403.58267089 C-21.08773837 394.19498292 -21.09185357 384.80730157 -21.09822083 375.41961575 C-21.10001589 372.7181628 -21.10179552 370.01670985 -21.10357058 367.31525689 C-21.10401268 366.64368237 -21.10445477 365.97210785 -21.10491027 365.28018259 C-21.11722013 346.38781339 -21.12511125 327.4954465 -21.12422371 308.60307312 C-21.12419255 307.8906663 -21.12416139 307.17825948 -21.12412929 306.44426458 C-21.12396308 302.83342566 -21.12376499 299.22258674 -21.12355988 295.61174782 C-21.12351999 294.89461218 -21.1234801 294.17747654 -21.123439 293.43860952 C-21.12335812 291.98838619 -21.12327453 290.53816285 -21.12318821 289.08793952 C-21.12196265 266.52383248 -21.13697626 243.95978553 -21.16433334 221.39569569 C-21.19505064 196.04961114 -21.21226605 170.70356609 -21.2104069 145.35746175 C-21.21025764 142.65506574 -21.21016022 139.95266972 -21.21009827 137.2502737 C-21.21007496 136.58486706 -21.21005165 135.91946041 -21.21002763 135.23388993 C-21.20996989 125.18646227 -21.22067102 115.13908387 -21.236763 105.09167004 C-21.25494688 93.66469216 -21.2593451 82.23781279 -21.24574415 70.81082674 C-21.23920047 64.97898957 -21.23914789 59.14734154 -21.25645065 53.31552219 C-21.27212434 47.97795042 -21.26937608 42.64071865 -21.25188239 37.30315546 C-21.24879991 35.37114156 -21.25249158 33.43910265 -21.26360254 31.50711825 C-21.27770252 28.88173649 -21.26715427 26.2575508 -21.25049019 23.63220978 C-21.26539473 22.50593604 -21.26539473 22.50593604 -21.28060037 21.3569093 C-21.19550479 15.01967701 -19.14670266 9.84741021 -14.936306 5.07562733 C-14.36009506 4.62058826 -13.78388412 4.1655492 -13.19021225 3.69672108 C-12.61142319 3.22363514 -12.03263412 2.7505492 -11.436306 2.26312733 C-7.74831071 -0.20979759 -4.3037445 0.00620495 0 0 Z M19.24728775 40.13422108 C19.24728775 182.69422108 19.24728775 325.25422108 19.24728775 472.13422108 C137.38728775 472.13422108 255.52728775 472.13422108 377.24728775 472.13422108 C377.24728775 329.57422108 377.24728775 187.01422108 377.24728775 40.13422108 C259.10728775 40.13422108 140.96728775 40.13422108 19.24728775 40.13422108 Z " fill="#030104" transform="translate(57.75271224975586,-0.13422107696533203)"/>
<path d="M0 0 C54.78 0 109.56 0 166 0 C166 13.53 166 27.06 166 41 C111.22 41 56.44 41 0 41 C0 27.47 0 13.94 0 0 Z " fill="#030104" transform="translate(219,331)"/>
<path d="M0 0 C54.78 0 109.56 0 166 0 C166 13.2 166 26.4 166 40 C111.22 40 56.44 40 0 40 C0 26.8 0 13.6 0 0 Z " fill="#030104" transform="translate(219,235)"/>
<path d="M0 0 C54.78 0 109.56 0 166 0 C166 13.2 166 26.4 166 40 C111.22 40 56.44 40 0 40 C0 26.8 0 13.6 0 0 Z " fill="#030104" transform="translate(219,141)"/>
<path d="M0 0 C24.09 0 48.18 0 73 0 C73 24.09 73 48.18 73 73 C48.91 73 24.82 73 0 73 C0 48.91 0 24.82 0 0 Z " fill="#030104" transform="translate(132,315)"/>
<path d="M0 0 C24.09 0 48.18 0 73 0 C73 24.09 73 48.18 73 73 C48.91 73 24.82 73 0 73 C0 48.91 0 24.82 0 0 Z M57 16 C56.26362305 16.76256104 55.52724609 17.52512207 54.76855469 18.31079102 C52.03793931 21.1317821 49.29091004 23.9362941 46.53857422 26.73608398 C45.34879385 27.95103716 44.16353583 29.17043598 42.98291016 30.39428711 C41.28671867 32.151006 39.57499725 33.8911852 37.859375 35.62890625 C37.33317566 36.18091202 36.80697632 36.73291779 36.26483154 37.301651 C34.74902344 38.81860352 34.74902344 38.81860352 32 41 C28.58101749 40.99127423 27.88874823 39.8936564 25.34375 37.4609375 C23.89818947 35.9152689 22.47787341 34.35028092 21.06640625 32.7734375 C19.51780188 31.07199055 19.51780188 31.07199055 17 29 C13.85933207 29.05011704 13.0937004 29.91410796 10.75 32.0625 C10.1725 32.701875 9.595 33.34125 9 34 C10.48653506 37.46629835 12.45722351 39.69022036 15.1328125 42.328125 C15.93847656 43.12734375 16.74414062 43.9265625 17.57421875 44.75 C18.41597656 45.575 19.25773437 46.4 20.125 47.25 C21.39923828 48.51070313 21.39923828 48.51070313 22.69921875 49.796875 C24.79504923 51.86915683 26.89540713 53.93662393 29 56 C31.95265112 54.67005617 34.02350216 53.22220684 36.29980469 50.92724609 C36.92014587 50.30675385 37.54048706 49.6862616 38.17962646 49.04696655 C38.83706848 48.37920197 39.4945105 47.71143738 40.171875 47.0234375 C41.1955014 45.99556625 41.1955014 45.99556625 42.23980713 44.94692993 C44.41461598 42.76094155 46.58236072 40.56809571 48.75 38.375 C50.2247999 36.89016745 51.70005506 35.40578694 53.17578125 33.921875 C56.78915448 30.2864709 60.39620853 26.64490176 64 23 C62.12050295 19.42895561 60.82946843 17.45255699 57 16 Z " fill="#030104" transform="translate(132,219)"/>
<path d="M0 0 C24.09 0 48.18 0 73 0 C73 24.09 73 48.18 73 73 C48.91 73 24.82 73 0 73 C0 48.91 0 24.82 0 0 Z M57 16 C56.26362305 16.76256104 55.52724609 17.52512207 54.76855469 18.31079102 C52.03793931 21.1317821 49.29091004 23.9362941 46.53857422 26.73608398 C45.34879385 27.95103716 44.16353583 29.17043598 42.98291016 30.39428711 C41.28671867 32.151006 39.57499725 33.8911852 37.859375 35.62890625 C37.33317566 36.18091202 36.80697632 36.73291779 36.26483154 37.301651 C34.74902344 38.81860352 34.74902344 38.81860352 32 41 C28.58101749 40.99127423 27.88874823 39.8936564 25.34375 37.4609375 C23.89818947 35.9152689 22.47787341 34.35028092 21.06640625 32.7734375 C19.51780188 31.07199055 19.51780188 31.07199055 17 29 C13.85933207 29.05011704 13.0937004 29.91410796 10.75 32.0625 C10.1725 32.701875 9.595 33.34125 9 34 C10.48653506 37.46629835 12.45722351 39.69022036 15.1328125 42.328125 C15.93847656 43.12734375 16.74414062 43.9265625 17.57421875 44.75 C18.41597656 45.575 19.25773437 46.4 20.125 47.25 C21.39923828 48.51070312 21.39923828 48.51070312 22.69921875 49.796875 C24.79504923 51.86915683 26.89540713 53.93662393 29 56 C31.95265112 54.67005617 34.02350216 53.22220684 36.29980469 50.92724609 C36.92014587 50.30675385 37.54048706 49.6862616 38.17962646 49.04696655 C38.83706848 48.37920197 39.4945105 47.71143738 40.171875 47.0234375 C41.1955014 45.99556625 41.1955014 45.99556625 42.23980713 44.94692993 C44.41461598 42.76094155 46.58236072 40.56809571 48.75 38.375 C50.2247999 36.89016745 51.70005506 35.40578694 53.17578125 33.921875 C56.78915448 30.2864709 60.39620853 26.64490176 64 23 C62.12050295 19.42895561 60.82946843 17.45255699 57 16 Z " fill="#030104" transform="translate(132,125)"/>
</svg>
